<svg viewBox="0 0 1200 200" xmlns="http://www.w3.org/2000/svg">
  <defs>
    <style>
      .subtitle { font-family: 'Segoe UI', Arial, sans-serif; font-size: 14px; font-weight: 600; fill: #ffffff; }
      .description { font-family: 'Segoe UI', Arial, sans-serif; font-size: 11px; fill: #ffffff; opacity: 0.9; }
      
      .step1 { fill: #3498db; stroke: #2980b9; stroke-width: 2; }
      .step2 { fill: #9b59b6; stroke: #8e44ad; stroke-width: 2; }
      .step3 { fill: #2ecc71; stroke: #27ae60; stroke-width: 2; }
      .step4 { fill: #e67e22; stroke: #d35400; stroke-width: 2; }
      .step5 { fill: #e74c3c; stroke: #c0392b; stroke-width: 2; }
      
      .shadow { filter: drop-shadow(2px 2px 4px rgba(0,0,0,0.2)); }
    </style>
  </defs>
  
  <!-- Background -->
  <rect width="1200" height="200" fill="#f8f9fa"></rect>
  
  <!-- Step 1: Data Sources -->
  <rect x="50" y="50" width="180" height="120" rx="15" class="step1 shadow"></rect>
  <text x="140" y="80" text-anchor="middle" class="subtitle">📊 DATA SOURCES</text>
  <text x="140" y="100" text-anchor="middle" class="description">Yahoo Finance API</text>
  <text x="140" y="115" text-anchor="middle" class="description">Market Data (OHLCV)</text>
  <text x="140" y="130" text-anchor="middle" class="description">48 Assets • 6 Classes</text>
  <text x="140" y="150" text-anchor="middle" class="description">Configuration Settings</text>
  
  <!-- Step 2: Data Processing -->
  <rect x="280" y="50" width="180" height="120" rx="15" class="step2 shadow"></rect>
  <text x="370" y="80" text-anchor="middle" class="subtitle">🔧 DATA PROCESSING</text>
  <text x="370" y="100" text-anchor="middle" class="description">Data Fetching</text>
  <text x="370" y="115" text-anchor="middle" class="description">Technical Indicators</text>
  <text x="370" y="130" text-anchor="middle" class="description">ATR • Moving Averages</text>
  <text x="370" y="150" text-anchor="middle" class="description">Data Validation</text>
  
  <!-- Step 3: Strategy Engine -->
  <rect x="510" y="50" width="180" height="120" rx="15" class="step3 shadow"></rect>
  <text x="600" y="80" text-anchor="middle" class="subtitle">⚙️ STRATEGY ENGINE</text>
  <text x="600" y="100" text-anchor="middle" class="description">Grid Generation</text>
  <text x="600" y="115" text-anchor="middle" class="description">Signal Detection</text>
  <text x="600" y="130" text-anchor="middle" class="description">Risk Management</text>
  <text x="600" y="150" text-anchor="middle" class="description">Trading Logic</text>
  
  <!-- Step 4: Backtesting -->
  <rect x="740" y="50" width="180" height="120" rx="15" class="step4 shadow"></rect>
  <text x="830" y="80" text-anchor="middle" class="subtitle">🧪 BACKTESTING</text>
  <text x="830" y="100" text-anchor="middle" class="description">Trade Simulation</text>
  <text x="830" y="115" text-anchor="middle" class="description">Performance Metrics</text>
  <text x="830" y="130" text-anchor="middle" class="description">Portfolio Management</text>
  <text x="830" y="150" text-anchor="middle" class="description">Results Analysis</text>
  
  <!-- Step 5: Visualization -->
  <rect x="970" y="50" width="180" height="120" rx="15" class="step5 shadow"></rect>
  <text x="1060" y="80" text-anchor="middle" class="subtitle">📈 VISUALIZATION</text>
  <text x="1060" y="100" text-anchor="middle" class="description">Interactive Charts</text>
  <text x="1060" y="115" text-anchor="middle" class="description">Performance Dashboard</text>
  <text x="1060" y="130" text-anchor="middle" class="description">Web Interface</text>
  <text x="1060" y="150" text-anchor="middle" class="description">Export Results</text>
  
  <!-- Simple Arrows -->
  <polygon points="240,105 270,105 270,100 285,110 270,120 270,115 240,115" fill="#2c3e50"></polygon>
  <polygon points="470,105 500,105 500,100 515,110 500,120 500,115 470,115" fill="#2c3e50"></polygon>
  <polygon points="700,105 730,105 730,100 745,110 730,120 730,115 700,115" fill="#2c3e50"></polygon>
  <polygon points="930,105 960,105 960,100 975,110 960,120 960,115 930,115" fill="#2c3e50"></polygon>
  
  <!-- Step Numbers -->
  <circle cx="140" cy="30" r="15" fill="#2c3e50"></circle>
  <text x="140" y="36" text-anchor="middle" fill="white" font-family="Arial" font-size="14" font-weight="bold">1</text>
  
  <circle cx="370" cy="30" r="15" fill="#2c3e50"></circle>
  <text x="370" y="36" text-anchor="middle" fill="white" font-family="Arial" font-size="14" font-weight="bold">2</text>
  
  <circle cx="600" cy="30" r="15" fill="#2c3e50"></circle>
  <text x="600" y="36" text-anchor="middle" fill="white" font-family="Arial" font-size="14" font-weight="bold">3</text>
  
  <circle cx="830" cy="30" r="15" fill="#2c3e50"></circle>
  <text x="830" y="36" text-anchor="middle" fill="white" font-family="Arial" font-size="14" font-weight="bold">4</text>
  
  <circle cx="1060" cy="30" r="15" fill="#2c3e50"></circle>
  <text x="1060" y="36" text-anchor="middle" fill="white" font-family="Arial" font-size="14" font-weight="bold">5</text>
</svg>